<svg width="128" height="56" viewBox="0 0 128 56" fill="none" xmlns="http://www.w3.org/2000/svg">
<path d="M1.27734 27.5273H4.66406C5.375 27.5273 5.94531 27.7305 6.375 28.1367C6.80469 28.543 7.01953 29.2285 7.01953 30.1934C7.01953 30.8691 6.92188 31.4043 6.72656 31.7988C6.53125 32.1934 6.25586 32.4766 5.90039 32.6484C5.54492 32.8164 5.12695 32.9004 4.64648 32.9004H2.46094V36H1.27734V27.5273ZM4.66992 32.0039C5.01367 32.0039 5.26758 31.9219 5.43164 31.7578C5.5957 31.5898 5.70312 31.373 5.75391 31.1074C5.80859 30.8418 5.83594 30.5645 5.83594 30.2754C5.83594 29.998 5.81445 29.7168 5.77148 29.4316C5.72852 29.1465 5.62695 28.9082 5.4668 28.7168C5.31055 28.5215 5.05469 28.4238 4.69922 28.4238H2.46094V32.0039H4.66992Z" fill="#194A78"/>
<path d="M12.0469 36V27.5273H15.8262C16.3027 27.5273 16.7168 27.6055 17.0684 27.7617C17.4238 27.9141 17.6992 28.1738 17.8945 28.541C18.0938 28.9043 18.1934 29.4023 18.1934 30.0352C18.1934 30.7188 18.082 31.2266 17.8594 31.5586C17.6406 31.8867 17.3535 32.125 16.998 32.2734L18.7969 36H17.584L15.9023 32.4844H13.2305V36H12.0469ZM13.2305 31.5938H15.7266C16.0703 31.5938 16.334 31.5293 16.5176 31.4004C16.7012 31.2715 16.8281 31.0977 16.8984 30.8789C16.9727 30.6562 17.0098 30.4102 17.0098 30.1406C17.0098 29.8672 16.9863 29.5996 16.9395 29.3379C16.8965 29.0762 16.7949 28.8594 16.6348 28.6875C16.4746 28.5117 16.2168 28.4238 15.8613 28.4238H13.2305V31.5938Z" fill="#194A78"/>
<path d="M26.9297 36.1289C26.2227 36.1289 25.6406 36.0566 25.1836 35.9121C24.7305 35.7676 24.377 35.5645 24.123 35.3027C23.8691 35.0371 23.6914 34.7227 23.5898 34.3594C23.4883 33.9961 23.4375 33.5938 23.4375 33.1523V30.4863C23.4375 30.0371 23.4863 29.625 23.584 29.25C23.6855 28.875 23.8633 28.5488 24.1172 28.2715C24.3711 27.9941 24.7246 27.7793 25.1777 27.627C25.6348 27.4746 26.2188 27.3984 26.9297 27.3984C27.6133 27.3984 28.1758 27.4785 28.6172 27.6387C29.0586 27.7988 29.4023 28.0234 29.6484 28.3125C29.8945 28.5977 30.0664 28.9316 30.1641 29.3145C30.2656 29.6973 30.3164 30.1133 30.3164 30.5625V33.0703C30.3164 33.5039 30.2656 33.9082 30.1641 34.2832C30.0664 34.6543 29.8926 34.9785 29.6426 35.2559C29.3965 35.5293 29.0527 35.7441 28.6113 35.9004C28.1699 36.0527 27.6094 36.1289 26.9297 36.1289ZM26.9297 35.1797C27.4336 35.1797 27.8477 35.1309 28.1719 35.0332C28.5 34.9316 28.7422 34.748 28.8984 34.4824C29.0586 34.2168 29.1387 33.834 29.1387 33.334V30.2695C29.1387 29.7656 29.0586 29.375 28.8984 29.0977C28.7383 28.8203 28.4941 28.627 28.166 28.5176C27.8418 28.4043 27.4297 28.3477 26.9297 28.3477C26.4336 28.3477 26.0137 28.4043 25.6699 28.5176C25.3262 28.627 25.0645 28.8203 24.8848 29.0977C24.709 29.375 24.6211 29.7656 24.6211 30.2695V33.334C24.6211 33.834 24.709 34.2168 24.8848 34.4824C25.0605 34.748 25.3203 34.9316 25.6641 35.0332C26.0078 35.1309 26.4297 35.1797 26.9297 35.1797Z" fill="#194A78"/>
<path d="M63.8516 25.1475L59.457 29.564C59.2373 28.9487 58.937 28.3994 58.5562 27.916C58.1753 27.418 57.7432 27.0005 57.2598 26.6636C56.791 26.3267 56.2783 26.0703 55.7217 25.8945C55.165 25.7188 54.5938 25.6309 54.0078 25.6309C53.1875 25.6309 52.4111 25.7993 51.6787 26.1362C50.9609 26.4731 50.3311 26.9492 49.7891 27.5645C49.2617 28.165 48.8442 28.8828 48.5366 29.7178C48.229 30.5527 48.0752 31.4756 48.0752 32.4863C48.0752 33.3066 48.229 34.0757 48.5366 34.7935C48.8442 35.5112 49.2617 36.1411 49.7891 36.6831C50.3311 37.2251 50.9609 37.6499 51.6787 37.9575C52.4111 38.2651 53.1875 38.4189 54.0078 38.4189C54.5938 38.4189 55.1577 38.3384 55.6997 38.1772C56.2417 38.0161 56.7471 37.7891 57.2158 37.4961C57.6992 37.1885 58.124 36.8223 58.4902 36.3975C58.8711 35.958 59.1787 35.4746 59.4131 34.9473L63.8076 39.3638C63.251 40.1548 62.6064 40.8652 61.874 41.4951C61.1562 42.125 60.3726 42.6597 59.5229 43.0991C58.688 43.5386 57.8018 43.8682 56.8643 44.0879C55.9414 44.3223 54.9893 44.4395 54.0078 44.4395C52.3525 44.4395 50.7925 44.1318 49.3276 43.5166C47.8774 42.8867 46.603 42.0298 45.5044 40.9458C44.4204 39.8618 43.5635 38.5947 42.9336 37.1445C42.3037 35.6943 41.9888 34.1416 41.9888 32.4863C41.9888 30.6846 42.3037 29 42.9336 27.4326C43.5635 25.8652 44.4204 24.5029 45.5044 23.3457C46.603 22.1738 47.8774 21.251 49.3276 20.5771C50.7925 19.9033 52.3525 19.5664 54.0078 19.5664C54.9893 19.5664 55.9487 19.6909 56.8862 19.9399C57.8384 20.189 58.7393 20.5552 59.5889 21.0386C60.4531 21.5073 61.2441 22.0859 61.9619 22.7744C62.6943 23.4629 63.3242 24.2539 63.8516 25.1475Z" fill="#194A78"/>
<path d="M72.8384 44H66.7959V11.1069H72.8384V44Z" fill="#194A78"/>
<path d="M94.7231 41.2534C94.2397 41.6929 93.7197 42.1104 93.1631 42.5059C92.6211 42.8867 92.0498 43.2236 91.4492 43.5166C90.8486 43.7949 90.2261 44.0146 89.5815 44.1758C88.9517 44.3516 88.3071 44.4395 87.6479 44.4395C86.1978 44.4395 84.8354 44.1831 83.561 43.6704C82.2866 43.1577 81.166 42.4326 80.1992 41.4951C79.2471 40.543 78.4927 39.3931 77.936 38.0454C77.394 36.6831 77.123 35.1597 77.123 33.4751V20.4673H83.0996V33.4751C83.0996 34.2661 83.2168 34.9766 83.4512 35.6064C83.7002 36.2217 84.0298 36.7417 84.4399 37.1665C84.8501 37.5913 85.3262 37.9136 85.8682 38.1333C86.4248 38.353 87.0181 38.4629 87.6479 38.4629C88.2632 38.4629 88.8418 38.3237 89.3838 38.0454C89.9404 37.7524 90.4238 37.3716 90.834 36.9028C91.2441 36.4341 91.5664 35.9067 91.8008 35.3208C92.0352 34.7202 92.1523 34.105 92.1523 33.4751V20.4673H98.1509V44H96.7007L94.7231 41.2534Z" fill="#194A78"/>
<path d="M126.298 32.0249C126.298 33.8706 125.983 35.5552 125.353 37.0786C124.723 38.6021 123.866 39.9131 122.782 41.0117C121.698 42.0957 120.424 42.938 118.959 43.5386C117.509 44.1392 115.949 44.4395 114.279 44.4395C112.624 44.4395 111.063 44.1318 109.599 43.5166C108.148 42.9014 106.874 42.0444 105.775 40.9458C104.691 39.8472 103.834 38.5435 103.205 37.0347C102.575 35.5112 102.26 33.8413 102.26 32.0249V11.1069H108.28V22.0933C108.603 21.6831 108.991 21.3169 109.445 20.9946C109.914 20.6724 110.412 20.4087 110.939 20.2036C111.481 19.9985 112.038 19.8447 112.609 19.7422C113.18 19.625 113.737 19.5664 114.279 19.5664C115.949 19.5664 117.509 19.8813 118.959 20.5112C120.424 21.1265 121.698 21.9907 122.782 23.104C123.866 24.2173 124.723 25.5356 125.353 27.0591C125.983 28.5679 126.298 30.2231 126.298 32.0249ZM120.255 32.0249C120.255 31.1167 120.094 30.2744 119.772 29.498C119.464 28.707 119.04 28.0259 118.498 27.4546C117.956 26.8833 117.318 26.4365 116.586 26.1143C115.868 25.792 115.099 25.6309 114.279 25.6309C113.458 25.6309 112.682 25.814 111.95 26.1802C111.232 26.5317 110.602 27.0078 110.06 27.6084C109.518 28.1943 109.093 28.8755 108.786 29.6519C108.478 30.4136 108.324 31.2046 108.324 32.0249C108.324 32.9331 108.478 33.7754 108.786 34.5518C109.093 35.3281 109.518 36.002 110.06 36.5732C110.602 37.1445 111.232 37.5986 111.95 37.9355C112.682 38.2578 113.458 38.4189 114.279 38.4189C115.099 38.4189 115.868 38.2578 116.586 37.9355C117.318 37.5986 117.956 37.1445 118.498 36.5732C119.04 36.002 119.464 35.3281 119.772 34.5518C120.094 33.7754 120.255 32.9331 120.255 32.0249Z" fill="#194A78"/>
</svg>
